<svg width="34" height="33" viewBox="0 0 34 33" fill="none" xmlns="http://www.w3.org/2000/svg">
<path d="M32.9285 7.61653C33.0043 7.79926 33.0243 8.00038 32.9858 8.19445C32.9474 8.38853 32.8522 8.56684 32.7124 8.70683L28.7113 12.7079C28.6182 12.8008 28.5078 12.8743 28.3863 12.9245C28.2647 12.9746 28.1345 13.0003 28.0031 13H22.4155L19.7088 15.7068C20.0139 16.3455 20.0834 17.0716 19.9049 17.7566C19.7265 18.4417 19.3116 19.0416 18.7336 19.4503C18.1556 19.859 17.4517 20.0502 16.7464 19.9902C16.0411 19.9301 15.3797 19.6226 14.8791 19.1221C14.3785 18.6215 14.0711 17.9601 14.011 17.2548C13.9509 16.5494 14.1422 15.8456 14.5509 15.2676C14.9596 14.6896 15.5595 14.2747 16.2445 14.0963C16.9296 13.9178 17.6556 13.9873 18.2944 14.2924L21.0012 11.5856V5.99808C21.0009 5.86663 21.0266 5.73643 21.0767 5.61491C21.1268 5.49339 21.2004 5.38295 21.2932 5.28988L25.2943 1.28877C25.4342 1.14852 25.6126 1.05296 25.8069 1.01422C26.0012 0.975476 26.2026 0.995288 26.3856 1.07114C26.5686 1.147 26.7249 1.27548 26.8348 1.44031C26.9447 1.60513 27.0032 1.79887 27.0028 1.99697V6.99836H32.0042C32.2021 6.99839 32.3956 7.05715 32.5601 7.16719C32.7247 7.27723 32.8529 7.43361 32.9285 7.61653ZM29.5895 8.99691H26.0025C25.7373 8.99691 25.4828 8.89153 25.2952 8.70394C25.1076 8.51635 25.0023 8.26193 25.0023 7.99663V4.41364L23.0017 6.4142V10.9995H27.589L29.5895 8.99891V8.99691ZM32.2183 12.0298C32.7284 13.5942 33.0045 15.2667 33.0045 17.0011C33.0033 20.3819 31.9316 23.6754 29.9431 26.4094C27.9546 29.1435 25.1513 31.1776 21.9353 32.2201C18.7194 33.2627 15.2559 33.26 12.0415 32.2126C8.82712 31.1652 6.02698 29.1267 4.04262 26.3897C2.05826 23.6526 0.991609 20.3574 0.995617 16.9767C0.999624 13.596 2.07409 10.3033 4.06493 7.57096C6.05577 4.83858 8.86073 2.80682 12.0776 1.76701C15.2944 0.727206 18.7579 0.732771 21.9714 1.78291L20.355 3.40136C17.3853 2.66914 14.2576 2.9293 11.4498 4.14206C8.64189 5.35483 6.30829 7.45352 4.8055 10.1175C3.30272 12.7814 2.71341 15.8641 3.12761 18.8945C3.54181 21.9249 4.93675 24.7364 7.09928 26.8993C9.26181 29.0623 12.073 30.4578 15.1033 30.8725C18.1337 31.2873 21.2165 30.6986 23.8807 29.1964C26.5449 27.6941 28.6441 25.3609 29.8574 22.5533C31.0707 19.7456 31.3315 16.618 30.5998 13.6482L32.2183 12.0298ZM26.8028 15.0006C27.2324 17.1073 26.9718 19.2964 26.0596 21.2434C25.1474 23.1903 23.6321 24.7916 21.7383 25.8097C19.8446 26.8278 17.6732 27.2086 15.546 26.8957C13.4188 26.5828 11.449 25.5928 9.92871 24.0725C8.40837 22.5521 7.41838 20.5824 7.10546 18.4552C6.79255 16.328 7.17338 14.1566 8.19151 12.2628C9.20963 10.3691 10.8109 8.85381 12.7578 7.94159C14.7048 7.02936 16.8939 6.76876 19.0006 7.19841V9.25098C17.3011 8.81254 15.5045 8.94503 13.8877 9.62803C12.2709 10.311 10.9234 11.5067 10.0529 13.0308C9.18246 14.5549 8.8372 16.3229 9.07036 18.0625C9.30351 19.8021 10.1021 21.4168 11.3432 22.6579C12.5843 23.899 14.199 24.6977 15.9387 24.9308C17.6783 25.164 19.4463 24.8187 20.9704 23.9482C22.4945 23.0777 23.6901 21.7303 24.3731 20.1135C25.0561 18.4967 25.1886 16.7001 24.7502 15.0006H26.8028Z" fill="#02A9F7"/>
</svg>
